PathFileType	4	(X/Y/Z)	61_2_35_p1_0-179_filt_butterworth.trc
DataRate	CameraRate	NumFrames	NumMarkers	Units	OrigDataRate	OrigDataStartFrame	OrigNumFrames
41.0	41.0	5	27	m	41.0	89	179
Frame#	Time	RHip			RKnee			RAnkle			RBigToe			RSmallToe			RHeel			LHip			LKnee			LAnkle			LBigToe			LSmallToe			LHeel			Neck			Head			Nose			RShoulder			RElbow			RWrist			RThumb			RIndex			RPinky			LShoulder			LElbow			LWrist			LThumb			LIndex			LPinky			
		X1	Y1	Z1	X2	Y2	Z2	X3	Y3	Z3	X4	Y4	Z4	X5	Y5	Z5	X6	Y6	Z6	X7	Y7	Z7	X8	Y8	Z8	X9	Y9	Z9	X10	Y10	Z10	X11	Y11	Z11	X12	Y12	Z12	X13	Y13	Z13	X14	Y14	Z14	X15	Y15	Z15	X16	Y16	Z16	X17	Y17	Z17	X18	Y18	Z18	X19	Y19	Z19	X20	Y20	Z20	X21	Y21	Z21	X22	Y22	Z22	X23	Y23	Z23	X24	Y24	Z24	X25	Y25	Z25	X26	Y26	Z26	X27	Y27	Z27	
89	2.1707317073170733	0.3325778638130229	0.7199590406101144	0.8037885969301863	0.32665212275525896	0.27648567737878565	0.8638113371379262	0.30295572340805005	-0.15794939358073257	0.9211070707948141	0.3045161489791952	-0.13315852445290438	0.69186316155975	0.35825269647271474	-0.13376621359305435	0.719989813033473	0.28014614919683506	-0.21570383109314867	0.9788060632907074	0.12136003931264842	0.7303688256675144	0.7618623757542754	0.1044711507232336	0.2673028893838728	0.8405635009558082	0.11712193383373413	-0.13230909285651368	0.8562944979808648	0.14974443042028163	-0.1316669213872968	0.6817477627469465	0.0849369586797098	-0.12442726508854318	0.708555906781818	0.14097786812297808	-0.2125120004130025	0.9343501598416863	0.23925352854808662	1.269422270028221	0.7854216849392013	0.22517300501041904	1.5188925629641021	0.7266231025949668	0.21469431475187434	1.3765060523327501	0.6723275008237481	0.39958138107078744	1.1840159197024192	0.8053536239087168	0.44199632376646936	0.9433638228982991	0.8574059047627685	0.39163688505330424	0.8261586357325202	0.6552486601354772	0.2912992771802074	0.7726766563614255	0.593802084900817	0.3019333748763762	0.7546899953088674	0.5985536405625467	0.34390673900093915	0.7065766204016041	0.6509265638241013	0.06879018154141256	1.1844597509403862	0.837900066922226	0.04583102659221465	0.9724609823250645	0.8636592756107944	0.0224302436818375	0.9470527084715095	0.6218022937923811	0.07015837978509627	0.9379445281859559	0.5200739342102331	0.06231559226941888	0.9386399127595888	0.48461588940535	0.038490064459051315	0.8699046000863843	0.5543154572161603	
90	2.1951219512195124	0.3341871441078119	0.7209994225516095	0.8019642977761061	0.3262629919574478	0.27650328609509955	0.8632855800539796	0.30256289278487747	-0.15813407203361568	0.9215071369761977	0.30508691950199923	-0.1357378132054074	0.695426240189352	0.3582705960188082	-0.13364766694878594	0.7196489470993614	0.2802476866508406	-0.21540725318369927	0.9781656869486669	0.1212455883560727	0.7316525880366138	0.7620785153790963	0.10499677222656237	0.26750150006788564	0.839777859487553	0.11746874718043188	-0.13299344158165302	0.8558633483428887	0.14970814203528815	-0.13126080474168642	0.6811076256010368	0.08523629600435484	-0.12461757907291063	0.7086215393000675	0.1415042255554603	-0.21350145370188894	0.9342273641387789	0.24093089319869104	1.269930468953378	0.7850696188812452	0.2305091162860494	1.51945555035169	0.734389836730281	0.2176592039812718	1.3784864627320816	0.6719218644238942	0.40075512596570806	1.1829021032524598	0.8076520205885261	0.4455188028114263	0.9445794298617394	0.8526908180173844	0.3907136595925828	0.8332525067845056	0.6492698560665365	0.2877398792225807	0.7880071088076284	0.5876788623190871	0.2972061799172546	0.7712634021396738	0.5874788098770845	0.3344853963562002	0.7146862010995315	0.6473684437874728	0.06917894730360899	1.1855678733506219	0.8408892271952989	0.04839551848432021	0.9683420224811593	0.862673606680672	0.025503879640015235	0.9694449515407361	0.6150300037852752	0.07227483409515319	0.976333152923991	0.5118765700156327	0.06389852776510037	0.9771427262131627	0.4726418411814144	0.04541646524072169	0.9042286540631782	0.5379022702400165	
91	2.2195121951219514	0.33574771416724186	0.7223653689045185	0.8001682455602597	0.3259690587000755	0.27670314092796794	0.862977700953105	0.3023943649859087	-0.15819852358642372	0.9217211581331148	0.30560223819643206	-0.13780538114524457	0.6981959352819737	0.35845116996820736	-0.13320940422560368	0.7191520334535193	0.2803447408325168	-0.21523147162049627	0.977828536099816	0.12118782400502168	0.7336467530822467	0.7627679920388062	0.10567325409430321	0.2677736640645487	0.8389531921654658	0.11785128826196886	-0.13340634424927517	0.8554625460263469	0.14962813027204314	-0.13065097079289256	0.6807893151441101	0.08551492378814746	-0.12544230265517484	0.7098358839695069	0.14200662223981436	-0.2146249736074876	0.9344207893620131	0.24154863580455554	1.2700900509413011	0.7851783656858	0.2336343367833545	1.5199996092483645	0.7384327186981094	0.21975407483229079	1.3799850259387179	0.6694974309996761	0.40198729459613947	1.1816292934290915	0.8099198806133094	0.45035738873431785	0.9466410394431231	0.8453071926244199	0.38962254626432574	0.8395999111851573	0.6457800053588141	0.28475643904261777	0.8014062657530439	0.5835559311327663	0.2932573326898101	0.7862730494376194	0.579351198892829	0.32487012605299104	0.7232582633166944	0.641951271827294	0.06941804103738679	1.1857609105619367	0.8437006129178248	0.04915167650213019	0.9621303313607678	0.8554613441068639	0.028864595852080004	0.9898942699057406	0.6095575950331578	0.07614918178903674	1.0153511289144206	0.5023441174174257	0.06530456903071337	1.0148735498936412	0.4666814268805129	0.050426734497237315	0.9415187786260675	0.5236805670240045	
92	2.2439024390243905	0.33712652222214	0.7239543692697905	0.7985316969554079	0.32572576555814564	0.27700009658694796	0.8628338347048011	0.3024272677996591	-0.15817680424994718	0.9216863937676856	0.30601349013187473	-0.13864447945046054	0.6992396032243505	0.35866572897615717	-0.13294064677904135	0.7193114244630712	0.2805263649700892	-0.21520727381342	0.977784280255888	0.12126240962200688	0.7363144501925237	0.763779092784732	0.10629120563417781	0.26828492698090867	0.8380448093682966	0.11831416946135498	-0.13348369214050057	0.8551977285119763	0.1496398674186491	-0.1304245440816969	0.6808340979285054	0.08586750111960169	-0.12681634525369745	0.7120404155235284	0.142495911507272	-0.21534303283994652	0.9348146548947849	0.2415717296659156	1.2696934453400712	0.7865121750427657	0.23532201242482265	1.5206504410469024	0.7396358301904122	0.22115637503409574	1.3805755159723119	0.667197265167593	0.40316312777282026	1.1803209043066567	0.8130125678189299	0.45553249371224525	0.9488584948655917	0.8362851497351245	0.3871666866251109	0.8450179792758602	0.6449855141114662	0.28119645503255214	0.8106189138263441	0.5834194977247141	0.2902348914620572	0.7976301584672242	0.5751894402535032	0.31642812436781764	0.7321612395149233	0.6348831939490862	0.07063615640203122	1.1854091075699866	0.8471807106533433	0.04654596522879313	0.9581757980366218	0.8412773599856496	0.03273524416066214	1.0138362838657944	0.6035135279408799	0.08115925330179592	1.0565517670623694	0.4978006376702974	0.06915877564391237	1.0564083619657365	0.46531846418889866	0.05547301913290684	0.9862734667163493	0.5110965750125078	
93	2.268292682926829	0.3383380542280642	0.7257415485219443	0.7968548267660955	0.32545100884236555	0.27735753174833505	0.8626604766331567	0.3024602281152678	-0.15806627607013568	0.9214195781488876	0.3060491078261526	-0.13804638852303985	0.6982180101678198	0.35850941102623324	-0.13361813404796366	0.7205420813166252	0.2807672417963816	-0.21517587072367556	0.9777985245084296	0.12134336341326467	0.739221760492215	0.7652230850747276	0.10680510050294516	0.2692362138564054	0.8371717663824005	0.11876472223500498	-0.13357625918405874	0.8552862696321325	0.14975739482596917	-0.13079996481098569	0.680865658382903	0.08627784461662767	-0.12866606123284013	0.7150290660426122	0.14291426864492646	-0.2153612219857988	0.934924529227514	0.24176491532259198	1.268894473195531	0.7890879795872273	0.23660032820452004	1.5213150484633458	0.7397357969433256	0.22197672484822895	1.379835610738285	0.6676651365178901	0.4041096721451398	1.179350498536985	0.8171997385261933	0.46027422456130807	0.9506168501128455	0.8269457880326669	0.3825557009584857	0.84976156430282	0.6459084313651716	0.27584951921541645	0.8155534945266238	0.5863061688775251	0.28716088050321853	0.8046770505008463	0.573943023756794	0.3094318549352757	0.740991229255427	0.6268018086097185	0.07355929450253537	1.1857374210958158	0.8504513164005487	0.04087421522364702	0.9594536031567241	0.8199411415973472	0.0372428647797608	1.0452418196031956	0.5970905580537555	0.0858747599681105	1.101710278680963	0.5040627630038441	0.07625774620350186	1.1048389467408308	0.46867031114775426	0.06216415581698717	1.040214328367	0.5016639478877777	
